# xmcd
#
# Track frame offsets: 
#        150
#        15440
#        26198
#        44453
#        71072
#        90334
#        112282
#        135382
#        150647
#        172306
#        189714
#
# Disc length: 2882 seconds
#
# Revision: 0
# Processed by: cddbd v1.5.2PL0 Copyright (c) Steve Scherf et al.
# Submitted via: ExactAudioCopy v0.99pb5
#
DISCID=970b400b
DTITLE=Zeno and the Stoics - Zeno and the Stoics
DYEAR=2006
DGENRE=Rock and Roll
TTITLE0=T-Shirt
TTITLE1=Rats in the Fridge
TTITLE2=Holy Lie
TTITLE3=Cheers for Fears
TTITLE4=No Reason
TTITLE5=Jordan
TTITLE6=Nothing Taboo
TTITLE7=Under the Sky
TTITLE8=Fado
TTITLE9=Plastik Bag
TTITLE10=Cheers for Fears (Josué Santos - Sax)
EXTD=
EXTT0=
EXTT1=
EXTT2=
EXTT3=
EXTT4=
EXTT5=
EXTT6=
EXTT7=
EXTT8=
EXTT9=
EXTT10=
PLAYORDER=
